<?xml version="1.0" encoding="utf-8"?>
<!-- Generator: Adobe Illustrator 25.0.0, SVG Export Plug-In . SVG Version: 6.00 Build 0)  -->
<svg version="1.1" xmlns="http://www.w3.org/2000/svg" xmlns:xlink="http://www.w3.org/1999/xlink" x="0px" y="0px"
	 viewBox="0 0 841.9 1190.6" style="enable-background:new 0 0 841.9 1190.6;" xml:space="preserve">
<style type="text/css">
	.st0{fill:#E59F5C;}
	.st1{fill:none;stroke:#6D6E70;stroke-width:3;stroke-linejoin:round;stroke-miterlimit:16;}
	.st2{fill:#6D6E70;}
</style>
<g id="Layer_1">
	<image style="overflow:visible;" width="820" height="908" xlink:href="ban.jpg"  transform="matrix(1 0 0 1 11 141.5511)">
	</image>
</g>
<g id="Layer_2">
	<rect x="11" y="141.6" class="st0" width="820" height="908"/>
	<g>
		<g>
			<g transform="rotate(0,0,0)">
				<path class="st1" d="M33.1,163.4H807v865.3H33.1V163.4z M807,932.5H33.1 M807,836.4H33.1 M807,740.3H33.1 M807,644.1H33.1
					 M807,548H33.1 M807,451.8H33.1 M807,355.7H33.1 M807,259.6H33.1 M721.1,163.4v865.3 M635.1,163.4v865.3 M549.1,163.4v865.3
					 M463.1,163.4v865.3 M377.1,163.4v865.3 M291.1,163.4v865.3 M205.1,163.4v865.3 M119.1,163.4v865.3"/>
			</g>
		</g>
		<circle class="st2" cx="291.1" cy="451.8" r="7.4"/>
		<circle class="st2" cx="549.1" cy="451.8" r="7.4"/>
		<circle class="st2" cx="291.1" cy="740.3" r="7.4"/>
		<circle class="st2" cx="549.1" cy="740.3" r="7.4"/>
	</g>
</g>
</svg>
